<svg width="141" height="141" viewBox="0 0 141 141" fill="none" xmlns="http://www.w3.org/2000/svg">
<path d="M117.5 23.4998H35.2505C28.7704 23.4998 23.5005 28.7696 23.5005 35.2498V64.6248H35.2505V46.9998L72.8505 75.1998C73.8678 75.9616 75.1045 76.3733 76.3755 76.3733C77.6464 76.3733 78.8832 75.9616 79.9005 75.1998L117.5 46.9998V99.8748H70.5005V111.625H117.5C123.981 111.625 129.25 106.355 129.25 99.8748V35.2498C129.25 28.7696 123.981 23.4998 117.5 23.4998ZM76.3755 63.156L39.1632 35.2498H113.588L76.3755 63.156Z" fill="#333333"/>
<path d="M11.7495 70.5H52.8745V82.25H11.7495V70.5ZM23.4995 88.125H58.7495V99.875H23.4995V88.125ZM41.1245 105.75H64.6245V117.5H41.1245V105.75Z" fill="#333333"/>
</svg>
