<svg width="18" height="18" viewBox="0 0 18 18" fill="none" xmlns="http://www.w3.org/2000/svg">
<path d="M12.6333 10.6667C12.7 10.1167 12.75 9.56669 12.75 9.00002C12.75 8.43335 12.7 7.88335 12.6333 7.33335H15.45C15.5833 7.86669 15.6667 8.42502 15.6667 9.00002C15.6667 9.57502 15.5833 10.1334 15.45 10.6667H12.6333ZM11.1583 15.3C11.6583 14.375 12.0417 13.375 12.3083 12.3334H14.7667C13.9593 13.7236 12.6784 14.7767 11.1583 15.3ZM10.95 10.6667H7.04999C6.96666 10.1167 6.91666 9.56669 6.91666 9.00002C6.91666 8.43335 6.96666 7.87502 7.04999 7.33335H10.95C11.025 7.87502 11.0833 8.43335 11.0833 9.00002C11.0833 9.56669 11.025 10.1167 10.95 10.6667ZM8.99999 15.6334C8.30832 14.6334 7.74999 13.525 7.40832 12.3334H10.5917C10.25 13.525 9.69166 14.6334 8.99999 15.6334ZM5.66666 5.66669H3.23332C4.03237 4.2727 5.31232 3.21793 6.83332 2.70002C6.33332 3.62502 5.95832 4.62502 5.66666 5.66669ZM3.23332 12.3334H5.66666C5.95832 13.375 6.33332 14.375 6.83332 15.3C5.31551 14.7764 4.03736 13.7231 3.23332 12.3334ZM2.54999 10.6667C2.41666 10.1334 2.33332 9.57502 2.33332 9.00002C2.33332 8.42502 2.41666 7.86669 2.54999 7.33335H5.36666C5.29999 7.88335 5.24999 8.43335 5.24999 9.00002C5.24999 9.56669 5.29999 10.1167 5.36666 10.6667H2.54999ZM8.99999 2.35835C9.69166 3.35835 10.25 4.47502 10.5917 5.66669H7.40832C7.74999 4.47502 8.30832 3.35835 8.99999 2.35835ZM14.7667 5.66669H12.3083C12.0475 4.63457 11.6613 3.63827 11.1583 2.70002C12.6917 3.22502 13.9667 4.28335 14.7667 5.66669ZM8.99999 0.666687C4.39166 0.666687 0.666656 4.41669 0.666656 9.00002C0.666656 11.2102 1.54463 13.3298 3.10743 14.8926C3.88125 15.6664 4.79991 16.2802 5.81096 16.699C6.82201 17.1178 7.90564 17.3334 8.99999 17.3334C11.2101 17.3334 13.3297 16.4554 14.8925 14.8926C16.4553 13.3298 17.3333 11.2102 17.3333 9.00002C17.3333 7.90567 17.1178 6.82204 16.699 5.81099C16.2802 4.79994 15.6664 3.88129 14.8925 3.10746C14.1187 2.33364 13.2001 1.71981 12.189 1.30102C11.178 0.882235 10.0943 0.666687 8.99999 0.666687Z" fill="#5C6370"/>
</svg>
