<?xml version="1.0" encoding="utf-8"?>
<!-- Generator: Adobe Illustrator 22.0.0, SVG Export Plug-In . SVG Version: 6.00 Build 0)  -->
<svg version="1.1" xmlns="http://www.w3.org/2000/svg" xmlns:xlink="http://www.w3.org/1999/xlink" x="0px" y="0px"
	 viewBox="0 0 283.5 75.6" style="enable-background:new 0 0 283.5 75.6;" xml:space="preserve">
<style type="text/css">
	.st0{fill:#A5A5A5;}
	.st1{fill:#E60000;}
	.st2{fill:#FFFFFF;}
</style>
<g id="Layer_1">
	<g>
		<g>
			<path class="st0" d="M278.9,74.4h1.7l-0.4-7.5h-2.2l-0.8,2.5c-0.3,0.8-0.5,1.8-0.7,2.7h0c-0.2-0.9-0.4-1.8-0.6-2.7l-0.7-2.5h-2.3
				l-0.5,7.5h1.6l0.1-2.9c0-0.9,0.1-2.1,0.1-3.1h0c0.2,1,0.4,2.1,0.7,2.9l0.8,2.9h1.3l0.9-2.9c0.3-0.9,0.6-2,0.9-2.9h0
				c0,1.1,0,2.2,0.1,3.1L278.9,74.4z M263.6,66.8V71c0,2.4,1.1,3.5,3,3.5c2,0,3.1-1.1,3.1-3.4v-4.2h-1.7v4.3c0,1.3-0.5,2-1.4,2
				c-0.9,0-1.4-0.7-1.4-2v-4.3H263.6z M257.6,68.1c0.1,0,0.4-0.1,0.8-0.1c0.8,0,1.3,0.4,1.3,1c0,0.7-0.5,1.1-1.4,1.1h-0.7V68.1z
				 M255.9,74.4h1.7v-3h0.5c0.7,0,1,0.3,1.2,1.2c0.2,0.9,0.4,1.5,0.5,1.8h1.7c-0.1-0.3-0.4-1.3-0.6-2.1c-0.2-0.7-0.5-1.2-1-1.4v0
				c0.7-0.2,1.3-0.9,1.3-1.8c0-0.7-0.2-1.2-0.7-1.6c-0.5-0.4-1.3-0.6-2.4-0.6c-0.9,0-1.7,0.1-2.3,0.2V74.4z M250.1,73.2
				c-1.1,0-1.8-1.1-1.8-2.5c0-1.4,0.7-2.6,1.8-2.6c1.2,0,1.8,1.2,1.8,2.5C251.9,72.1,251.2,73.2,250.1,73.2L250.1,73.2z M250,74.5
				c2.2,0,3.7-1.5,3.7-4c0-2.1-1.3-3.8-3.6-3.8c-2.2,0-3.7,1.7-3.7,3.9C246.4,72.8,247.8,74.5,250,74.5L250,74.5z M239.8,74.4h1.7
				v-3h2.7V70h-2.7v-1.7h2.9v-1.4h-4.6V74.4z M229.2,74c0.4,0.2,1.3,0.5,2.1,0.5c2.1,0,3-1.1,3-2.3c0-1.1-0.6-1.8-1.9-2.2
				c-1-0.4-1.4-0.6-1.4-1.1c0-0.4,0.4-0.7,1.1-0.7c0.7,0,1.3,0.2,1.6,0.4l0.4-1.4c-0.4-0.2-1.1-0.4-1.9-0.4c-1.8,0-2.9,1-2.9,2.3
				c0,1.1,0.8,1.8,2.1,2.2c0.9,0.3,1.3,0.6,1.3,1.1c0,0.5-0.4,0.8-1.2,0.8c-0.7,0-1.4-0.2-1.9-0.5L229.2,74z M222,74
				c0.4,0.2,1.3,0.5,2.1,0.5c2.1,0,3-1.1,3-2.3c0-1.1-0.6-1.8-1.9-2.2c-1-0.4-1.4-0.6-1.4-1.1c0-0.4,0.4-0.7,1.1-0.7
				c0.7,0,1.3,0.2,1.6,0.4l0.4-1.4c-0.4-0.2-1.1-0.4-1.9-0.4c-1.8,0-2.9,1-2.9,2.3c0,1.1,0.8,1.8,2.1,2.2c0.9,0.3,1.3,0.6,1.3,1.1
				c0,0.5-0.4,0.8-1.2,0.8c-0.7,0-1.4-0.2-1.9-0.5L222,74z M219.7,69.8h-2.8v-1.6h2.9v-1.4h-4.6v7.5h4.8V73h-3.1v-1.8h2.8V69.8z
				 M207.9,74.4v-2.3c0-1.2,0-2.3-0.1-3.3h0c0.4,0.9,0.9,1.8,1.3,2.7l1.6,2.9h1.8v-7.5h-1.6V69c0,1.1,0,2.2,0.1,3.2h0
				c-0.3-0.8-0.8-1.8-1.2-2.6l-1.6-2.8h-2v7.5H207.9z M202.1,74.4h1.7v-7.5h-1.7V74.4z M194.6,74c0.4,0.2,1.3,0.5,2.1,0.5
				c2.1,0,3-1.1,3-2.3c0-1.1-0.6-1.8-1.9-2.2c-1-0.4-1.4-0.6-1.4-1.1c0-0.4,0.4-0.7,1.1-0.7c0.7,0,1.3,0.2,1.6,0.4l0.4-1.4
				c-0.4-0.2-1.1-0.4-1.9-0.4c-1.8,0-2.9,1-2.9,2.3c0,1.1,0.8,1.8,2.1,2.2c0.9,0.3,1.3,0.6,1.3,1.1c0,0.5-0.4,0.8-1.2,0.8
				c-0.7,0-1.4-0.2-1.9-0.5L194.6,74z M186.2,66.8V71c0,2.4,1.1,3.5,3,3.5c2,0,3.1-1.1,3.1-3.4v-4.2h-1.7v4.3c0,1.3-0.5,2-1.4,2
				c-0.9,0-1.4-0.7-1.4-2v-4.3H186.2z M180,71h0.6c0.9,0,1.5,0.3,1.5,1.1c0,0.8-0.7,1.1-1.5,1.1c-0.3,0-0.5,0-0.7,0V71z M180,68.1
				c0.1,0,0.3-0.1,0.7-0.1c0.8,0,1.2,0.3,1.2,0.9c0,0.6-0.5,0.9-1.4,0.9H180V68.1z M178.3,74.3c0.4,0.1,1,0.1,1.8,0.1
				c1.5,0,2.4-0.2,3-0.7c0.5-0.4,0.8-0.9,0.8-1.6c0-1-0.6-1.6-1.5-1.9v0c0.8-0.3,1.2-0.9,1.2-1.6c0-0.7-0.4-1.2-0.9-1.5
				c-0.5-0.3-1.2-0.4-2.2-0.4c-0.9,0-1.8,0.1-2.2,0.2V74.3z M172.5,69.8h-2.8v-1.6h2.9v-1.4h-4.6v7.5h4.8V73h-3.1v-1.8h2.8V69.8z
				 M160.6,74c0.4,0.2,1.3,0.5,2.1,0.5c2.1,0,3-1.1,3-2.3c0-1.1-0.6-1.8-1.9-2.2c-1-0.4-1.4-0.6-1.4-1.1c0-0.4,0.4-0.7,1.1-0.7
				c0.7,0,1.3,0.2,1.6,0.4l0.4-1.4c-0.4-0.2-1.1-0.4-1.9-0.4c-1.8,0-2.9,1-2.9,2.3c0,1.1,0.8,1.8,2.1,2.2c0.9,0.3,1.3,0.6,1.3,1.1
				c0,0.5-0.4,0.8-1.2,0.8c-0.7,0-1.4-0.2-1.9-0.5L160.6,74z M158.3,69.8h-2.8v-1.6h2.9v-1.4h-4.6v7.5h4.8V73h-3.1v-1.8h2.8V69.8z
				 M146.5,74.4v-2.3c0-1.2,0-2.3-0.1-3.3h0c0.4,0.9,0.9,1.8,1.3,2.7l1.6,2.9h1.8v-7.5h-1.6V69c0,1.1,0,2.2,0.1,3.2h0
				c-0.3-0.8-0.8-1.8-1.2-2.6l-1.6-2.8h-2v7.5H146.5z M140.7,74.4h1.7v-7.5h-1.7V74.4z M131.8,66.8v7.5h1.7v-3.1h2.8v3.1h1.7v-7.5
				h-1.7v2.9h-2.8v-2.9H131.8z M129.3,72.8c-0.3,0.1-0.9,0.2-1.4,0.2c-1.5,0-2.4-1-2.4-2.5c0-1.7,1.1-2.5,2.4-2.5
				c0.6,0,1.1,0.1,1.4,0.3l0.4-1.4c-0.3-0.1-1-0.3-1.9-0.3c-2.3,0-4.1,1.4-4.1,4c0,2.1,1.3,3.8,3.9,3.8c0.9,0,1.6-0.2,1.9-0.3
				L129.3,72.8z M118.9,71.2h2.9V70h-2.9V71.2z M110.5,66.8v7.5h1.7v-3.1h2.8v3.1h1.7v-7.5H115v2.9h-2.8v-2.9H110.5z M103.1,74
				c0.4,0.2,1.3,0.5,2.1,0.5c2.1,0,3-1.1,3-2.3c0-1.1-0.6-1.8-1.9-2.2c-1-0.4-1.4-0.6-1.4-1.1c0-0.4,0.4-0.7,1.1-0.7
				c0.7,0,1.3,0.2,1.6,0.4l0.4-1.4c-0.4-0.2-1.1-0.4-1.9-0.4c-1.8,0-2.9,1-2.9,2.3c0,1.1,0.8,1.8,2.1,2.2c0.9,0.3,1.3,0.6,1.3,1.1
				c0,0.5-0.4,0.8-1.2,0.8c-0.7,0-1.4-0.2-1.9-0.5L103.1,74z M99.1,74.4h1.7v-7.5h-1.7V74.4z M91.8,74.4v-2.3c0-1.2,0-2.3-0.1-3.3h0
				c0.4,0.9,0.9,1.8,1.3,2.7l1.6,2.9h1.8v-7.5h-1.6V69c0,1.1,0,2.2,0.1,3.2h0c-0.3-0.8-0.8-1.8-1.2-2.6l-1.6-2.8h-2v7.5H91.8z
				 M83.7,71.2l0.5-1.6c0.1-0.4,0.2-1,0.3-1.5h0c0.1,0.4,0.2,1,0.4,1.5l0.5,1.6H83.7z M85.7,72.4l0.6,1.9h1.8l-2.3-7.5h-2.2
				l-2.3,7.5H83l0.5-1.9H85.7z M74.7,68.2c0.1,0,0.4-0.1,0.8-0.1c1.5,0,2.4,0.8,2.4,2.4c0,1.8-1,2.7-2.6,2.6c-0.2,0-0.4,0-0.6,0
				V68.2z M73,74.3c0.4,0.1,1,0.1,1.9,0.1c1.5,0,2.7-0.3,3.5-1c0.7-0.6,1.2-1.6,1.2-3.1c0-1.3-0.5-2.3-1.3-2.8
				c-0.7-0.5-1.7-0.8-3.1-0.8c-0.8,0-1.7,0.1-2.3,0.2V74.3z"/>
		</g>
	</g>
</g>
<g id="Design">
	<g>
		<g>
			<path class="st1" d="M80.1,13.3c0-7.1-0.1-8.5-3.6-8.9l-1.4-0.1c-0.7-0.4-0.7-2.5,0.2-2.6C81.5,1.3,87.3,1,95.3,1
				c6.1,0,12.3,0.6,17.4,2.5c9.8,3.5,15.2,12.3,15.2,21.7c0,10-4.8,18.1-13.4,22.4C109.4,50,103.3,51,95.6,51
				c-3.5,0-7.3-0.4-9.9-0.4c-3.6,0-7.4,0.1-11.7,0.2c-0.6-0.5-0.6-2.2,0-2.6l2.3-0.4c3.4-0.5,3.8-1.1,3.8-8V13.3z M90.8,37
				c0,4.1,0.1,6.8,1.5,8.4c1.3,1.5,3.5,2.2,6.2,2.2c12.9,0,17.3-11.5,17.3-21.7c0-13.5-7.1-21.5-20.6-21.5c-2,0-3.4,0.4-3.9,1
				c-0.4,0.6-0.5,2-0.5,4.3V37z"/>
			<path class="st1" d="M181.9,1.9c0,1.3,0.2,7.3,0.9,11.7c-0.3,0.9-2.3,1.2-2.8,0.5c-2-7-6.8-10.7-14.1-10.7
				c-8.3,0-17.2,7.1-17.2,22c0,14.9,8.6,22.9,17.6,22.9c9,0,13.2-6.5,15.2-11.6c0.6-0.6,2.4-0.4,2.8,0.5c-0.5,5.5-1.8,10-2.8,11.7
				c-4,1.1-9.3,2.8-15.2,2.8c-7.3,0-14.8-1.7-20.1-5.7c-5.4-4.1-9.5-10.3-9.5-19.6c0-9.1,3.9-15.6,9-19.8c5.3-4.4,12.9-6.7,20.7-6.7
				C174.2,0,179.7,1.8,181.9,1.9z"/>
			<path class="st1" d="M199.5,13.4c0-7.5-0.2-8.3-3.3-8.7l-2-0.3c-0.7-0.4-0.8-2.6,0.3-2.7c5.7-0.4,11.1-0.7,18.6-0.7
				c7.2,0,12,0.8,15.3,2.8c3.2,1.9,5.2,5.1,5.2,9.5c0,6.3-5.3,8.7-7.6,9.3c-0.8,0.1-1.5,0.4-1.5,0.8c0,0.2,0.4,0.5,1,0.6
				c5.9,1.3,10.9,5.2,11,12.4c0.1,6.9-4,10.9-8.7,12.6c-4.7,1.6-10.3,1.9-14.9,1.9c-2.7,0-5.5-0.3-7.7-0.3c-3.7,0-7.3,0.1-11.6,0.2
				c-0.6-0.5-0.6-2.4,0-2.6l2.2-0.5c3.4-0.7,3.8-1.2,3.8-7.9V13.4z M209.9,20.6c0,1.9,0.1,2.1,4,2.1c6.4,0,8.8-4.1,8.8-8.6
				c0-6.5-4-9.7-9.2-9.7c-3.5,0-3.6,0.6-3.6,3.9V20.6z M209.9,37.9c0,5.8,0.7,9.5,6.6,9.5c5.5,0,8.4-4.3,8.4-10.3
				c0-6.5-3.7-11.1-10.9-11.1c-4.1,0-4.1,0.1-4.1,3.1V37.9z"/>
			<path class="st1" d="M263,21.2c0,2,0.1,2.2,2.1,2.2h5.8c4,0,4.8-0.5,5.5-4.2l0.4-1.8c0.5-0.7,2.4-0.6,2.8,0.1
				c-0.1,2.4-0.2,5.2-0.2,8c0,2.8,0.1,5.5,0.2,7.8c-0.4,0.7-2.3,0.7-2.8,0.1l-0.4-1.8c-0.7-3.6-1.6-4.2-5.5-4.2h-5.8
				c-2,0-2.1,0.2-2.1,2.2v10.1c0,7,0.4,7.6,3.8,8l2.8,0.4c0.5,0.4,0.5,2.2,0,2.6c-4.6-0.1-8.3-0.2-11.9-0.2c-3.4,0-7.2,0.1-11.7,0.2
				c-0.6-0.5-0.6-2.2,0-2.6l2.5-0.4c3.4-0.5,3.8-1.1,3.8-8V12c0-6.9-0.4-7.6-3.8-8.1L247,3.6c-0.7-0.4-0.7-2.3,0.1-2.6
				c3.2,0.2,7,0.2,10.5,0.2h15.7c4.8,0,9-0.1,10.1-0.2c0,1.3,0,6.7,0.1,11.7c-0.3,0.8-1.9,0.9-2.8,0.3c-0.8-3.1-1.4-4.9-2.2-5.8
				c-1.3-1.6-3.5-2.5-7.3-2.5h-5.8c-2.5,0-2.5,0.2-2.5,3.1V21.2z"/>
		</g>
		<path class="st2" d="M25.1,30c-2.3,0-4.1-1.8-4.1-4.1c0-2.3,1.8-4.1,4.1-4.1c2.3,0,4.1,1.8,4.1,4.1C29.2,28.1,27.4,30,25.1,30z"/>
		<path d="M4.5,30c-2.3,0-4.1-1.8-4.1-4.1c0-2.3,1.8-4.1,4.1-4.1c2.3,0,4.1,1.8,4.1,4.1C8.6,28.1,6.8,30,4.5,30z"/>
		<path d="M45.7,30c-2.3,0-4.1-1.8-4.1-4.1c0-2.3,1.8-4.1,4.1-4.1c2.3,0,4.1,1.8,4.1,4.1C49.8,28.1,48,30,45.7,30z"/>
		<path d="M45.7,50.6c-2.3,0-4.1-1.8-4.1-4.1c0-2.3,1.8-4.1,4.1-4.1c2.3,0,4.1,1.8,4.1,4.1C49.8,48.7,48,50.6,45.7,50.6z"/>
		<path d="M45.7,9.4c-2.3,0-4.1-1.8-4.1-4.1c0-2.3,1.8-4.1,4.1-4.1c2.3,0,4.1,1.8,4.1,4.1C49.8,7.5,48,9.4,45.7,9.4z"/>
		<path d="M4.5,9.4c-2.3,0-4.1-1.8-4.1-4.1c0-2.3,1.8-4.1,4.1-4.1c2.3,0,4.1,1.8,4.1,4.1C8.6,7.5,6.8,9.4,4.5,9.4z"/>
		<path d="M4.5,50.6c-2.3,0-4.1-1.8-4.1-4.1c0-2.3,1.8-4.1,4.1-4.1c2.3,0,4.1,1.8,4.1,4.1C8.6,48.7,6.8,50.6,4.5,50.6z"/>
		<path d="M29.2,5.3c0,2.3-1.8,4.1-4.1,4.1c-2.3,0-4.1-1.8-4.1-4.1c0-2.3,1.8-4.1,4.1-4.1C27.4,1.2,29.2,3,29.2,5.3z"/>
		<path d="M29.2,46.5c0,2.3-1.8,4.1-4.1,4.1c-2.3,0-4.1-1.8-4.1-4.1c0-2.3,1.8-4.1,4.1-4.1C27.4,42.3,29.2,44.2,29.2,46.5z"/>
		<path d="M8.6,5.3c0,2.3-1.8,4.1-4.1,4.1c-2.3,0-4.1-1.8-4.1-4.1c0-2.3,1.8-4.1,4.1-4.1C6.8,1.2,8.6,3,8.6,5.3z"/>
		<path d="M8.6,46.5c0,2.3-1.8,4.1-4.1,4.1c-2.3,0-4.1-1.8-4.1-4.1c0-2.3,1.8-4.1,4.1-4.1C6.8,42.3,8.6,44.2,8.6,46.5z"/>
		<path class="st1" d="M25.1,30c-2.3,0-4.1-1.8-4.1-4.1c0-2.3,1.8-4.1,4.1-4.1c2.3,0,4.1,1.8,4.1,4.1C29.2,28.1,27.4,30,25.1,30z"/>
		<path d="M29.2,5.3c0,2.3-1.8,4.1-4.1,4.1c-2.3,0-4.1-1.8-4.1-4.1c0-2.3,1.8-4.1,4.1-4.1C27.4,1.2,29.2,3,29.2,5.3z"/>
		<path d="M29.2,46.5c0,2.3-1.8,4.1-4.1,4.1c-2.3,0-4.1-1.8-4.1-4.1c0-2.3,1.8-4.1,4.1-4.1C27.4,42.3,29.2,44.2,29.2,46.5z"/>
		<path class="st2" d="M25.1,30c-2.3,0-4.1-1.8-4.1-4.1c0-2.3,1.8-4.1,4.1-4.1c2.3,0,4.1,1.8,4.1,4.1C29.2,28.1,27.4,30,25.1,30z"/>
		<path d="M4.5,30c-2.3,0-4.1-1.8-4.1-4.1c0-2.3,1.8-4.1,4.1-4.1c2.3,0,4.1,1.8,4.1,4.1C8.6,28.1,6.8,30,4.5,30z"/>
		<path d="M45.7,30c-2.3,0-4.1-1.8-4.1-4.1c0-2.3,1.8-4.1,4.1-4.1c2.3,0,4.1,1.8,4.1,4.1C49.8,28.1,48,30,45.7,30z"/>
		<path d="M45.7,50.6c-2.3,0-4.1-1.8-4.1-4.1c0-2.3,1.8-4.1,4.1-4.1c2.3,0,4.1,1.8,4.1,4.1C49.8,48.7,48,50.6,45.7,50.6z"/>
		<path d="M45.7,9.4c-2.3,0-4.1-1.8-4.1-4.1c0-2.3,1.8-4.1,4.1-4.1c2.3,0,4.1,1.8,4.1,4.1C49.8,7.5,48,9.4,45.7,9.4z"/>
		<path d="M4.5,9.4c-2.3,0-4.1-1.8-4.1-4.1c0-2.3,1.8-4.1,4.1-4.1c2.3,0,4.1,1.8,4.1,4.1C8.6,7.5,6.8,9.4,4.5,9.4z"/>
		<path d="M4.5,50.6c-2.3,0-4.1-1.8-4.1-4.1c0-2.3,1.8-4.1,4.1-4.1c2.3,0,4.1,1.8,4.1,4.1C8.6,48.7,6.8,50.6,4.5,50.6z"/>
		<path d="M29.2,5.3c0,2.3-1.8,4.1-4.1,4.1c-2.3,0-4.1-1.8-4.1-4.1c0-2.3,1.8-4.1,4.1-4.1C27.4,1.2,29.2,3,29.2,5.3z"/>
		<path d="M29.2,46.5c0,2.3-1.8,4.1-4.1,4.1c-2.3,0-4.1-1.8-4.1-4.1c0-2.3,1.8-4.1,4.1-4.1C27.4,42.3,29.2,44.2,29.2,46.5z"/>
		<path d="M8.6,5.3c0,2.3-1.8,4.1-4.1,4.1c-2.3,0-4.1-1.8-4.1-4.1c0-2.3,1.8-4.1,4.1-4.1C6.8,1.2,8.6,3,8.6,5.3z"/>
		<path d="M8.6,46.5c0,2.3-1.8,4.1-4.1,4.1c-2.3,0-4.1-1.8-4.1-4.1c0-2.3,1.8-4.1,4.1-4.1C6.8,42.3,8.6,44.2,8.6,46.5z"/>
		<path class="st1" d="M25.1,30c-2.3,0-4.1-1.8-4.1-4.1c0-2.3,1.8-4.1,4.1-4.1c2.3,0,4.1,1.8,4.1,4.1C29.2,28.1,27.4,30,25.1,30z"/>
		<path d="M29.2,5.3c0,2.3-1.8,4.1-4.1,4.1c-2.3,0-4.1-1.8-4.1-4.1c0-2.3,1.8-4.1,4.1-4.1C27.4,1.2,29.2,3,29.2,5.3z"/>
		<path d="M29.2,46.5c0,2.3-1.8,4.1-4.1,4.1c-2.3,0-4.1-1.8-4.1-4.1c0-2.3,1.8-4.1,4.1-4.1C27.4,42.3,29.2,44.2,29.2,46.5z"/>
	</g>
</g>
<g id="Logoer">
	<g>
		<g>
			<path class="st0" d="M2.8,66.2c0-0.4,0-0.8,0-1.1c0-0.3,0-0.5,0-0.7c0.1,0,0.3,0,0.4,0c0.2,0,0.4,0,0.6,0c0.3,0,0.6,0,1,0
				c0.4,0,0.9,0,1.5,0c0.6,0,1.1,0,1.4,0c0.4,0,0.7,0,1,0c0.3,0,0.5,0,0.6,0c0.2,0,0.3,0,0.4,0c0,0.2,0,0.4,0,0.7c0,0.3,0,0.7,0,1.1
				v3.4c0.3,0,0.6,0,0.8,0c0.2,0,0.4,0,0.6,0c0.2,0,0.4,0,0.5,0c0.2,0,0.3,0,0.5,0v1.2c-0.2,0-0.3,0-0.5,0c-0.2,0-0.3,0-0.5,0
				c-0.2,0-0.4,0-0.6,0c-0.2,0-0.5,0-0.8,0v3.1c0,0.4,0,0.7-0.1,0.9c0,0.2-0.1,0.4-0.3,0.5c-0.2,0.1-0.4,0.2-0.7,0.3
				c-0.3,0.1-0.7,0.1-1.3,0.2c0-0.1,0-0.3-0.1-0.6c-0.1-0.2-0.2-0.5-0.4-0.8c0.4,0,0.7,0.1,0.9,0.1c0.2,0,0.4,0,0.5-0.1
				c0.1-0.1,0.2-0.1,0.3-0.3c0-0.1,0.1-0.3,0.1-0.4v-3H3.9c-0.1,1-0.3,1.9-0.7,2.8c-0.4,0.8-0.9,1.6-1.6,2.2
				c-0.1-0.1-0.3-0.3-0.5-0.4c-0.2-0.1-0.4-0.2-0.7-0.3c0.4-0.3,0.7-0.5,1-0.8c0.3-0.3,0.5-0.6,0.7-0.9c0.2-0.3,0.4-0.7,0.5-1.1
				c0.1-0.4,0.2-0.8,0.2-1.3c-0.3,0-0.6,0-0.8,0c-0.2,0-0.5,0-0.7,0c-0.2,0-0.4,0-0.6,0c-0.2,0-0.3,0-0.5,0v-1.2c0.2,0,0.4,0,0.5,0
				c0.2,0,0.4,0,0.6,0c0.2,0,0.4,0,0.7,0c0.2,0,0.5,0,0.9,0V66.2z M8.5,65.5H3.9v4.1h4.6V65.5z M5.8,68.9c0-0.4-0.1-0.9-0.1-1.3
				c-0.1-0.5-0.1-0.8-0.2-1.2l1.1-0.1c0,0.3,0.1,0.7,0.1,1.2c0.1,0.4,0.1,0.9,0.2,1.3L5.8,68.9z"/>
			<path class="st0" d="M19.7,71.2v1.9c0,0.2,0,0.3,0,0.5c0,0.2,0,0.4,0,0.6c0,0.2,0,0.4,0,0.6c0,0.2,0,0.4,0.1,0.6h-1.4
				c0-0.2,0-0.3,0-0.5c0-0.2,0-0.4,0-0.6c0-0.2,0-0.4,0-0.6c0-0.2,0-0.4,0-0.5v-1.9h-3v0.9h-1.2c0-0.3,0-0.6,0.1-1c0-0.4,0-0.7,0-1
				v-2.8c0-0.2,0-0.5,0-0.7c0-0.3,0-0.5-0.1-0.6c0.3,0,0.8,0.1,1.5,0.1c0.7,0,1.6,0,2.7,0v-0.6c0-0.3,0-0.6,0-0.8c0-0.2,0-0.4,0-0.5
				c0-0.2,0-0.3,0-0.4c0-0.1,0-0.2-0.1-0.2c0.2,0,0.5,0,0.7,0.1c0.2,0,0.4,0,0.7,0c0.1,0,0.2,0,0.2,0c0,0,0,0.1-0.1,0.2
				c-0.1,0.1-0.2,0.3-0.2,0.7v1.5c1.1,0,2.1,0,2.8,0c0.7,0,1.2-0.1,1.6-0.1c0,0.1,0,0.2,0,0.3c0,0.1,0,0.3,0,0.4c0,0.1,0,0.3,0,0.5
				c0,0.2,0,0.3,0,0.4v2.5c0,0.3,0,0.6,0,0.9c0,0.4,0,0.7,0,0.9h-1.2v-0.8H19.7z M18.5,70.2v-3.1h-3v3.1H18.5z M22.8,70.2v-3.1h-3.1
				v3.1H22.8z"/>
			<path class="st0" d="M31.6,64.9c-0.1-0.4-0.2-0.8-0.4-1.1l1.4-0.3c0.1,0.2,0.1,0.4,0.2,0.7c0.1,0.2,0.1,0.4,0.2,0.7
				c1,0,1.9,0,2.7,0c0.8,0,1.4,0,2-0.1v1.1c-0.7,0-1.4-0.1-2.3-0.1c-0.9,0-2,0-3.2,0c-1.3,0-2.3,0-3.2,0c-0.9,0-1.7,0.1-2.3,0.1
				v-1.1c0.6,0,1.3,0.1,2.1,0.1C29.6,64.9,30.5,64.9,31.6,64.9z M32.9,67.5c0.1-0.3,0.2-0.5,0.3-0.8c0.1-0.3,0.2-0.5,0.3-0.7
				c0.2,0.1,0.4,0.1,0.6,0.2c0.2,0.1,0.4,0.1,0.6,0.1c0.1,0,0.1,0.1,0,0.1c-0.1,0-0.1,0.1-0.2,0.1c-0.1,0-0.1,0.1-0.2,0.2
				c-0.1,0.1-0.1,0.2-0.2,0.3c-0.1,0.1-0.2,0.2-0.3,0.4c0.5,0,0.9,0,1.3,0c0.3,0,0.6,0,0.8,0c0.2,0,0.4,0,0.5,0c0.1,0,0.3,0,0.4,0
				c0,0.2,0,0.4,0,0.8c0,0.4,0,0.8,0,1.3v4.8c0,0.3,0,0.5-0.1,0.6c0,0.2-0.1,0.3-0.3,0.4c-0.1,0.1-0.4,0.2-0.6,0.2
				c-0.3,0.1-0.7,0.1-1.1,0.1c0-0.2,0-0.4-0.1-0.6c-0.1-0.2-0.2-0.5-0.3-0.7c0.3,0,0.5,0.1,0.7,0.1c0.2,0,0.3,0,0.4,0
				c0.1,0,0.2-0.1,0.2-0.1c0-0.1,0-0.2,0-0.3v-5.5h-6.9v7.2h-1.3c0.1-0.5,0.1-1,0.1-1.4c0-0.4,0-0.9,0-1.3v-3.4c0-0.2,0-0.4,0-0.6
				c0-0.2,0-0.4,0-0.6c0-0.2,0-0.3,0-0.5c0-0.1,0-0.2,0-0.3c0.1,0,0.2,0,0.3,0c0.1,0,0.3,0,0.4,0c0.2,0,0.4,0,0.7,0c0.3,0,0.6,0,1,0
				c0-0.1-0.1-0.3-0.2-0.5c-0.1-0.2-0.2-0.4-0.3-0.6l1.1-0.5c0,0.1,0.1,0.1,0.1,0.2c0,0.1,0.1,0.2,0.2,0.3c0.1,0.1,0.1,0.2,0.2,0.3
				c0.1,0.1,0.1,0.2,0.2,0.2l-1.1,0.5H32.9z M30.2,70.7c-0.1,0.1-0.2,0.2-0.3,0.3c-0.1,0.1-0.2,0.2-0.4,0.4l-0.6-0.7
				c0.2-0.1,0.3-0.3,0.5-0.4c0.2-0.2,0.3-0.3,0.5-0.5c0.2-0.2,0.3-0.4,0.5-0.5c0.1-0.2,0.3-0.4,0.3-0.5c0.2,0.1,0.3,0.2,0.4,0.3
				c0.1,0.1,0.3,0.2,0.5,0.2c0.1,0,0.1,0.1,0,0.2c-0.1,0-0.2,0.1-0.2,0.2c-0.1,0.1-0.2,0.1-0.3,0.2c-0.1,0.1-0.2,0.2-0.4,0.4
				C30.6,70.3,30.4,70.5,30.2,70.7c0.3,0,0.6,0,0.9,0c0.3,0,0.7,0,1.1,0c0.5,0,0.9,0,1.1,0c0.3,0,0.6,0,0.8,0c0,0.2,0,0.4,0,0.7
				c0,0.3,0,0.5,0,0.8c0,0.3,0,0.6,0,0.9c0,0.3,0,0.5,0,0.7c-0.2,0-0.5,0-0.8,0c-0.3,0-0.7,0-1.2,0c-0.5,0-0.9,0-1.2,0s-0.6,0-0.8,0
				c0-0.2,0-0.4,0-0.7c0-0.3,0-0.6,0-0.8c0-0.3,0-0.5,0-0.8C30.2,71.1,30.2,70.9,30.2,70.7z M31.1,72.9h2v-1.4h-2V72.9z M34.8,71.2
				c-0.4-0.4-0.7-0.7-1.1-0.9c-0.4-0.3-0.7-0.5-1.1-0.7l0.7-0.7c0.4,0.2,0.8,0.5,1.1,0.7c0.4,0.3,0.7,0.5,1,0.8L34.8,71.2z"/>
			<path class="st0" d="M45.1,64.8c-0.2,0.3-0.5,0.7-0.8,1c-0.4,0.4-0.8,0.8-1.2,1.2c-0.4,0.4-0.9,0.8-1.4,1.2
				c-0.5,0.4-1,0.8-1.5,1.1c-0.1-0.2-0.2-0.4-0.4-0.5c-0.1-0.2-0.3-0.3-0.5-0.4c0.3-0.2,0.7-0.3,1-0.5c0.3-0.2,0.7-0.4,1-0.6
				c0.3-0.2,0.6-0.5,0.9-0.7c0.3-0.2,0.5-0.5,0.8-0.7c0.2-0.2,0.4-0.4,0.5-0.6c0.2-0.2,0.3-0.4,0.4-0.5c0.1-0.2,0.2-0.3,0.3-0.5
				c0.1-0.2,0.2-0.4,0.3-0.6c0.1,0.1,0.2,0.1,0.3,0.1c0.1,0,0.2,0.1,0.4,0.1c0.1,0,0.2,0.1,0.4,0.1c0.1,0,0.2,0,0.3,0.1
				c0.1,0,0.2,0.1,0.2,0.1c0,0.1-0.1,0.1-0.2,0.2c0.3,0.4,0.6,0.7,0.9,1.1c0.4,0.4,0.7,0.7,1.2,1c0.3,0.2,0.5,0.3,0.8,0.5
				c0.3,0.2,0.6,0.3,0.9,0.4c0.3,0.1,0.6,0.2,0.9,0.3c0.3,0.1,0.5,0.1,0.8,0.2c-0.2,0.2-0.4,0.4-0.5,0.6c-0.1,0.2-0.2,0.5-0.3,0.7
				c-0.4-0.2-0.7-0.3-1-0.5c-0.3-0.2-0.6-0.3-0.9-0.5c-0.3-0.2-0.5-0.3-0.8-0.5c-0.2-0.2-0.5-0.4-0.7-0.6c-0.3-0.3-0.7-0.6-0.9-0.9
				C45.8,65.7,45.5,65.3,45.1,64.8z M47.4,73.8c-0.2-0.2-0.4-0.4-0.6-0.6c-0.2-0.2-0.4-0.4-0.6-0.6l0.9-0.5c0.2,0.2,0.5,0.5,0.8,0.7
				c0.3,0.3,0.5,0.5,0.7,0.7c0.2,0.2,0.5,0.5,0.7,0.7c0.2,0.2,0.4,0.4,0.6,0.6l-1,0.7c-0.1-0.1-0.2-0.3-0.3-0.4
				c-0.1-0.2-0.3-0.3-0.4-0.5c-1,0.1-1.8,0.1-2.5,0.2c-0.7,0.1-1.3,0.1-1.8,0.2c-0.5,0.1-0.9,0.1-1.2,0.1c-0.3,0-0.6,0.1-0.8,0.1
				c-0.2,0-0.3,0.1-0.4,0.1c-0.1,0-0.2,0.1-0.3,0.1c0-0.2-0.1-0.4-0.2-0.6c-0.1-0.2-0.1-0.4-0.2-0.6c0.2-0.1,0.4-0.1,0.5-0.2
				c0.2-0.1,0.3-0.2,0.4-0.2c0.2-0.2,0.5-0.3,0.7-0.6c0.3-0.2,0.5-0.4,0.8-0.7c0.2-0.2,0.5-0.5,0.6-0.7c0.2-0.2,0.3-0.4,0.4-0.5
				c-0.9,0-1.6,0-2.2,0c-0.6,0-1.2,0-1.7,0.1v-1.1c0.6,0,1.3,0.1,2.1,0.1c0.8,0,1.7,0,2.9,0s2.1,0,2.9,0c0.8,0,1.5,0,2.1-0.1v1.1
				c-0.3,0-0.7,0-1.1-0.1c-0.4,0-0.8,0-1.3,0c-0.5,0-1,0-1.6,0c-0.6,0-1.2,0-1.9,0c0.2,0.1,0.4,0.2,0.5,0.3c0.1,0.1,0.3,0.1,0.4,0.1
				c0.2,0,0.2,0.1,0.2,0.1c0,0-0.1,0.1-0.3,0.2c-0.2,0.1-0.4,0.2-0.6,0.4c-0.2,0.2-0.5,0.3-0.7,0.5c-0.2,0.2-0.4,0.4-0.6,0.6
				c-0.2,0.2-0.5,0.4-0.7,0.6L47.4,73.8z M48,69c-0.4-0.1-0.8-0.1-1.2-0.1c-0.4,0-1,0-1.7,0c-0.7,0-1.2,0-1.7,0
				c-0.4,0-0.8,0.1-1.2,0.1v-1.2c0.4,0,0.8,0.1,1.2,0.1c0.4,0,1,0,1.7,0c0.7,0,1.2,0,1.7,0c0.4,0,0.8,0,1.2-0.1V69z"/>
		</g>
	</g>
</g>
</svg>
