<?xml version="1.0" encoding="utf-8"?>
<!-- Generator: Adobe Illustrator 16.0.0, SVG Export Plug-In . SVG Version: 6.00 Build 0)  -->
<!DOCTYPE svg PUBLIC "-//W3C//DTD SVG 1.1//EN" "http://www.w3.org/Graphics/SVG/1.1/DTD/svg11.dtd">
<svg version="1.1" id="Layer_1" xmlns="http://www.w3.org/2000/svg" xmlns:xlink="http://www.w3.org/1999/xlink" x="0px" y="0px"
	 width="714px" height="236px" viewBox="0 0 714 236" enable-background="new 0 0 714 236" xml:space="preserve">
<g>
	<path fill-rule="evenodd" clip-rule="evenodd" fill="#F2F1F1" d="M664.277,56.367c-0.371-0.016-0.744-0.031-1.115-0.047
		c-0.121-8.894-0.242-17.787-0.363-26.681c0.492-0.091,0.986-0.182,1.479-0.272C664.277,38.367,664.277,47.367,664.277,56.367z"/>
	<path fill-rule="evenodd" clip-rule="evenodd" fill="#F2F1F1" d="M409.277,26.367c-0.006,0.369-0.01,0.738-0.016,1.107
		c-5.99-0.002-11.979-0.004-17.969-0.006c-0.006-0.367-0.01-0.734-0.016-1.102C397.277,26.367,403.277,26.367,409.277,26.367z"/>
	<path fill-rule="evenodd" clip-rule="evenodd" fill="#DF2929" d="M223.443,140.938c-9.494-0.749-18.977,0.023-28.463,0.23
		c-2.155,0.047-4.493,0.622-4.664-2.79c-0.159-3.16,2.094-3.324,4.239-3.73c9.172-1.738,10.38-2.717,10.454-11.9
		c0.197-24.497,0.187-48.998,0.016-73.495c-0.063-9.046-0.938-9.826-9.68-11.955c-2.076-0.506-2.733-1.661-2.674-3.526
		c0.067-2.149,1.499-2.77,3.356-2.856c7.156-0.333,14.31-0.729,21.468-0.987c17.491-0.632,35.005-1.338,52.259,2.573
		c19.785,4.484,34.575,15.328,40.428,35.283c5.982,20.395,2.423,39.434-12.53,55.231c-12.034,12.714-27.884,16.992-44.742,18.251
		C243.092,141.999,233.26,141.695,223.443,140.938z M229.354,81.401c0.043,0,0.086,0,0.13,0c0,12.483-0.014,24.967,0.024,37.449
		c0.003,1.15,0.32,2.304,0.526,3.449c1.176,6.561,4.538,9.914,11.071,11.062c15.661,2.751,30.15-4.305,37.692-18.383
		c5.682-10.606,7.056-22.051,6.575-33.867c-1.153-28.317-19.539-45.119-47.853-43.691c-6.7,0.338-8.11,1.727-8.147,8.527
		C229.307,57.765,229.354,69.583,229.354,81.401z"/>
	<path fill-rule="evenodd" clip-rule="evenodd" fill="#DF2929" d="M530.322,80.19c3.674,1.278,7.047,2.195,10.203,3.597
		c10.168,4.514,15.994,12.328,16.635,23.52c0.672,11.744-3.578,21.208-14.008,27.3c-8.615,5.032-18.311,5.967-27.945,6.504
		c-17.454,0.975-34.934-1.405-52.399,0.121c-2.029,0.178-3.18-0.619-3.336-2.698c-0.145-1.906,0.549-3.136,2.541-3.665
		c3.463-0.921,7.719-0.394,9.957-3.814c2.574-3.935,2.02-8.7,2.035-13.14c0.08-22.312-0.021-44.624-0.084-66.937
		c-0.006-1.66-0.295-3.32-0.299-4.98c-0.012-4.963-2.26-7.734-7.367-8.236c-2.279-0.225-5.488,0.247-5.369-3.604
		c0.129-4.207,3.617-3.314,5.982-3.399c19.936-0.721,39.895-2.923,59.788,0.564c4.797,0.841,9.367,2.404,13.436,5.131
		c8.531,5.719,11.496,14.015,10.26,23.839c-1.145,9.098-7.064,14.328-15.334,17.296c-1.244,0.447-2.502,0.863-3.727,1.36
		C531.031,79.053,530.887,79.446,530.322,80.19z M497.365,104.914c0.209,5.42-0.539,11.924,0.85,18.344
		c0.85,3.929,2.569,7.177,6.401,8.946c7.568,3.495,17.529,0.76,22.26-6.115c5.525-8.032,5.738-21.973,0.18-30.364
		c-6.137-9.264-15.529-10.498-25.574-9.829c-2.815,0.188-4.165,1.649-4.129,4.508C497.406,94.892,497.365,99.381,497.365,104.914z
		 M505.158,78.31c7.736,0.063,14.602-1.791,18.547-9.206c8.025-15.083-2.482-32.104-19.496-31.71
		c-5.514,0.128-6.792,1.305-6.834,6.763c-0.07,8.807-0.021,17.614-0.02,26.422C497.357,78.275,497.384,78.302,505.158,78.31z"/>
	<path fill-rule="evenodd" clip-rule="evenodd" fill="#DF2D2D" d="M662.799,29.64c0.121,8.894,0.242,17.787,0.363,26.681
		c-4.094,2.226-6.27,1.035-7.588-3.494c-3.51-12.06-7.359-14.745-20.104-14.802c-4.666-0.021-9.334,0.099-13.996-0.03
		c-3.158-0.088-4.559,1.156-4.539,4.377c0.072,11.164,0.092,22.33-0.014,33.493c-0.031,3.171,1.621,4.091,4.32,4.067
		c5.662-0.051,11.326-0.146,16.988-0.219c4.516-0.059,7.066-2.445,8.012-6.742c0.357-1.626,0.75-3.245,1.057-4.88
		c0.447-2.396,2.156-2.718,4.133-2.561c2.041,0.164,2.834,1.308,2.727,3.354c-0.535,10.317-0.574,20.64-0.012,30.959
		c0.105,1.928-0.375,3.303-2.535,3.503c-2.189,0.203-3.979-0.139-4.381-2.839c-0.268-1.806-0.742-3.588-1.232-5.351
		c-1.002-3.605-3.336-5.782-7.148-5.868c-6.162-0.14-12.326-0.079-18.49-0.144c-2.654-0.027-3.424,1.473-3.406,3.825
		c0.084,10.829-0.045,21.663,0.268,32.485c0.188,6.527,1.953,8.069,8.371,8.929c1.154,0.155,2.309,0.341,3.471,0.433
		c2.404,0.191,3.578,1.32,3.41,3.863c-0.182,2.716-1.979,2.58-3.902,2.55c-10.82-0.168-21.643-0.361-32.465-0.411
		c-4.994-0.023-9.99,0.211-14.982,0.432c-1.895,0.084-3.398-0.255-3.623-2.401c-0.213-2.044,0.463-3.628,2.811-3.928
		c0.164-0.021,0.324-0.098,0.488-0.101c11.561-0.164,11.66-4.778,11.686-14.783c0.061-23.162,0.023-46.325,0.012-69.487
		c-0.002-1.831-0.049-3.668-0.191-5.493c-0.488-6.199-1.912-7.771-8.002-8.848c-2.314-0.409-4.924-0.471-4.699-3.843
		c0.242-3.645,3-2.802,5.238-2.745C610.826,30.274,636.813,30.211,662.799,29.64z"/>
	<path fill-rule="evenodd" clip-rule="evenodd" fill="#DF2B2B" d="M391.292,27.469c5.99,0.002,11.979,0.004,17.969,0.006
		c7.369,1.27,14.727,2.62,22.117,3.759c2.209,0.341,3.082,1.157,3.219,3.457c0.414,6.977,1.041,13.942,1.672,20.905
		c0.184,2.038,0.012,3.63-2.383,4.157c-2.355,0.519-3.752-0.237-4.561-2.59c-4.43-12.9-13.221-20.578-27.02-21.716
		c-14.865-1.226-26.209,5.039-34.213,17.329c-11.984,18.404-10.902,49.582,2.104,67.282c16.605,22.601,47.877,20.146,60.729-4.773
		c0.762-1.479,1.455-2.993,2.141-4.51c0.99-2.189,2.746-2.103,4.639-1.594c2.01,0.54,2.537,1.942,2.164,3.84
		c-0.064,0.327-0.121,0.655-0.178,0.983c-4.789,27.854-2.236,22.826-27.395,28.21c-13.563,2.902-27.209,1.265-40.471-2.787
		c-22.578-6.898-36.612-24.104-38.861-47.481c-2.262-23.508,9.101-44.955,29.314-55.834
		C371.394,31.208,381.269,29.163,391.292,27.469z"/>
	<path fill-rule="evenodd" clip-rule="evenodd" fill="#232427" d="M137.195,131.35c0.091,5.17-3.726,9.188-8.905,9.376
		c-5.338,0.193-9.698-3.817-9.814-9.026c-0.115-5.143,4.234-9.487,9.457-9.448C133.004,122.289,137.106,126.318,137.195,131.35z"/>
	<path fill-rule="evenodd" clip-rule="evenodd" fill="#232427" d="M35.211,30.057c5.375,0.027,9.403,4.163,9.25,9.498
		c-0.145,5.073-4.216,8.97-9.352,8.952c-5.134-0.018-9.132-3.942-9.228-9.06C25.781,34.048,29.774,30.029,35.211,30.057z"/>
	<path fill-rule="evenodd" clip-rule="evenodd" fill="#232427" d="M81.48,30.061c5.391-0.012,9.484,4.112,9.358,9.425
		c-0.121,5.09-4.177,9.028-9.304,9.035c-5.137,0.006-9.181-3.896-9.311-8.985C72.085,34.13,76.049,30.072,81.48,30.061z"/>
	<path fill-rule="evenodd" clip-rule="evenodd" fill="#232427" d="M34.918,76.168c5.375-0.123,9.548,3.916,9.544,9.235
		c-0.003,5.096-3.96,9.127-9.069,9.237c-5.399,0.117-9.519-3.895-9.509-9.26C25.894,80.182,29.713,76.287,34.918,76.168z"/>
	<path fill-rule="evenodd" clip-rule="evenodd" fill="#232427" d="M44.457,131.338c0.092,5.156-3.719,9.19-8.869,9.39
		c-5.464,0.212-9.625-3.647-9.724-9.021c-0.099-5.322,4.015-9.477,9.358-9.451C40.333,122.28,44.366,126.246,44.457,131.338z"/>
	<path fill-rule="evenodd" clip-rule="evenodd" fill="#232427" d="M81.715,140.734c-5.433,0.113-9.504-3.854-9.492-9.245
		c0.012-5.096,3.977-9.128,9.074-9.229c5.298-0.104,9.583,4.067,9.549,9.3C90.812,136.657,86.861,140.627,81.715,140.734z"/>
	<path fill-rule="evenodd" clip-rule="evenodd" fill="#232427" d="M128.096,30.067c5.192,0.101,9.079,4.019,9.101,9.175
		c0.022,5.249-4.242,9.378-9.568,9.265c-5.031-0.107-9.139-4.253-9.15-9.234C118.466,34.043,122.729,29.963,128.096,30.067z"/>
	<path fill-rule="evenodd" clip-rule="evenodd" fill="#232427" d="M127.81,76.172c5.376-0.025,9.488,4.1,9.386,9.415
		c-0.097,5.027-4.21,9.045-9.288,9.069c-5.244,0.025-9.561-4.307-9.433-9.465C118.6,80.164,122.707,76.196,127.81,76.172z"/>
	<path fill-rule="evenodd" clip-rule="evenodd" fill="#DF2D2D" d="M72.228,85.206c0.1-5.217,4.071-9.055,9.337-9.023
		c5.37,0.032,9.538,4.355,9.288,9.634c-0.241,5.087-4.471,8.944-9.646,8.799C76.036,94.469,72.128,90.375,72.228,85.206z"/>
</g>
<g>
	<path fill="#B1AFAE" d="M43.659,186.75h-5.742v8.629c0,1.86-0.898,2.79-2.693,2.79h-4.623l-0.795-2.481l4.752,0.097
		c0.552,0,0.827-0.346,0.827-1.038v-7.996H23.465c-0.173,3.46-0.787,6.056-1.841,7.786c-1.054,1.729-2.598,3.211-4.631,4.443
		l-2.06-1.994c3.774-1.698,5.742-5.109,5.904-10.235H15.29v-2.434h5.645V170.74h16.983v13.576h5.742V186.75z M35.387,184.316
		v-11.159H23.465v11.159H35.387z M33.554,181.624l-2.222,1.396c-1.925-3.385-4.207-5.65-6.845-6.797l1.736-1.703
		C29.229,175.71,31.672,178.077,33.554,181.624z"/>
	<path fill="#B1AFAE" d="M74.251,189.767h-2.628v-2.254h-8.126v11.191h-2.627v-11.191h-8.143l-0.065,2.384h-2.628v-14.712h10.835
		v-6.082h2.66l-0.065,6.082h10.787V189.767z M60.869,185.079v-7.461h-8.208v7.461H60.869z M71.623,185.079v-7.461h-8.126v7.461
		H71.623z"/>
	<path fill="#B1AFAE" d="M110.292,174.487H80.739v-2.417H94.25v-2.936h2.53v2.936h13.512V174.487z M107.811,195.622
		c0,0.801-0.265,1.466-0.794,1.995c-0.53,0.53-1.217,0.795-2.06,0.795h-2.725l-0.973-2.757l3.26,0.259
		c0.194,0.022,0.37-0.049,0.527-0.211s0.235-0.356,0.235-0.584v-11.095c-0.141,0.498-0.433,0.898-0.876,1.201
		c-0.443,0.302-0.892,0.454-1.346,0.454h-3.649c-0.725,0-1.295-0.206-1.711-0.617c-0.417-0.411-0.625-0.956-0.625-1.638v-2.66
		h-3.584c-0.768,2.865-2.752,5.05-5.953,6.553l-1.524-2.027c2.573-0.94,4.211-2.449,4.915-4.525h-5.207v17.615h-2.563v-20.032h7.283
		c-0.498-0.974-1.465-1.849-2.903-2.628l2.53-1.038c1.428,0.833,2.525,2.055,3.293,3.666h4.347c1.178-1.168,2.13-2.39,2.854-3.666
		l2.563,1.104c-0.552,0.778-1.271,1.633-2.157,2.563h6.845V195.622z M101.258,194.454H89.773v-7.51h11.484V194.454z M98.873,189.378
		h-6.715v2.644h6.683L98.873,189.378z M105.28,183.067v-2.303h-5.709v1.833c0,0.313,0.059,0.514,0.178,0.6
		c0.119,0.087,0.346,0.13,0.681,0.13h2.287c0.216,0,0.352-0.124,0.406-0.373l0.227-1.021L105.28,183.067z"/>
	<path fill="#B1AFAE" d="M139.73,180.696l-2.085,1.953c-5.094-3.281-8.545-6.407-10.355-9.375c-2.037,3.504-5.494,6.71-10.372,9.618
		l-1.959-1.863c2.205-1.202,4.102-2.524,5.69-3.969c1.587-1.443,2.716-2.643,3.388-3.598c0.67-0.953,1.57-2.566,2.696-4.839
		l2.553,1.061l-0.629,1.303C130.286,173.996,133.978,177.232,139.73,180.696z"/>
	<path fill="#B1AFAE" d="M137.905,198.943c-1.006,0.636-1.839,1.111-2.499,1.424c-0.862-1.454-1.504-2.448-1.923-2.984
		c-5.417,0.617-10.228,1.435-14.434,2.455c-0.084-0.092-0.612-0.814-1.582-2.167c3.236-2.595,5.842-6.038,7.819-10.329h-8.502
		v-2.273h20.097v2.273h-10.534v0.06l1.762,0.591c-1.906,3.797-4.028,6.72-6.364,8.771l0.072,0.061l9.761-1.545
		c-0.396-0.425-1.354-1.223-2.876-2.394l2.175-1.303C133.68,193.551,136.024,196.005,137.905,198.943z M132.348,181.813h-9.515
		v-2.271h9.515V181.813z"/>
</g>
<text transform="matrix(1 0 0 1 193.167 194.4121)" fill="#A8A6A5" font-family="'Arial-BoldMT'" font-size="24" letter-spacing="1">DANISH-CHINESE BUSINESS FORUM</text>
</svg>
